<svg width="100%" height="100%" viewBox="0 0 65 64" fill="none" xmlns="http://www.w3.org/2000/svg">
  <path fill-rule="evenodd" clip-rule="evenodd" d="M44.9471 24.6195C45.7096 25.4187 45.6798 26.6847 44.8805 27.4471L30.2055 41.4471C29.4323 42.1848 28.2158 42.1842 27.4432 41.4459L20.1182 34.4459C19.3197 33.6828 19.2909 32.4168 20.0541 31.6182C20.8172 30.8197 22.0832 30.7909 22.8818 31.5541L28.8262 37.2347L42.1195 24.5529C42.9187 23.7904 44.1847 23.8202 44.9471 24.6195Z" fill="currentColor"/>
  <path fill-rule="evenodd" clip-rule="evenodd" d="M32.5 10C20.3497 10 10.5 19.8497 10.5 32C10.5 44.1503 20.3497 54 32.5 54C44.6503 54 54.5 44.1503 54.5 32C54.5 19.8497 44.6503 10 32.5 10ZM6.5 32C6.5 17.6406 18.1406 6 32.5 6C46.8594 6 58.5 17.6406 58.5 32C58.5 46.3594 46.8594 58 32.5 58C18.1406 58 6.5 46.3594 6.5 32Z" fill="currentColor"/>
</svg>